<?xml version="1.0" encoding="UTF-8"?>
<svg width="212px" height="43px" viewBox="0 0 212 43" version="1.1" xmlns="http://www.w3.org/2000/svg" xmlns:xlink="http://www.w3.org/1999/xlink">
    <!-- Generator: Sketch 52.3 (67297) - http://www.bohemiancoding.com/sketch -->
    <title>logo-mobile</title>
    <desc>Created with Sketch.</desc>
    <g id="Home-Page" stroke="none" stroke-width="1" fill="none" fill-rule="evenodd">
        <g id="Artboard---Mobile-Portrait-375px---Menu" transform="translate(-16.000000, -14.000000)" fill="#FFFFFF">
            <g id="mobile/bar">
                <g id="logo/mobile/inverted" transform="translate(16.000000, 14.000000)">
                    <g id="logo/mobile/primary">
                        <path d="M29.0239796,1.54258481 C29.0172653,1.54013105 29.0052755,1.53767729 29,1.53571429 C29.2968673,1.599512 29.2968673,1.599512 29.5443367,1.70894963 L29.4431429,1.66919874 C29.3179694,1.62503109 29.235,1.597549 29.0239796,1.54258481" id="Fill-1"></path>
                        <path d="M18.0513163,0.683126328 C18.0359694,0.688033845 18.0153469,0.693922865 18,0.697848878 C20.3039592,0.00392601338 20.4032347,0.00392601338 21.3523469,0 L21.6564082,0.00490751673 L21.5791939,0.00490751673 C20.9562041,0.0343526171 20.0492959,0.135938213 18.0513163,0.683126328 M24.0941735,0.227218024 C24.0299082,0.215439984 23.9440612,0.204152696 23.8783571,0.193356159 C24.191051,0.245866588 24.6102143,0.310155057 24.921949,0.371989768 L25.2308061,0.437750492 C25.9166224,0.610004329 26.6945204,0.806304998 28.2388061,1.43299488 C27.6872755,1.21411964 26.0087041,0.550623377 24.0941735,0.227218024" id="Fill-2"></path>
                        <path d="M14.5273367,1.33543684 C14.5196633,1.33789059 14.5086327,1.34181661 14.5,1.34525187 C14.722051,1.26967611 15.0174796,1.17054427 15.241449,1.09693152 L15.2630306,1.09153325 C15.5498265,1.05031011 15.5498265,1.05031011 17.1929082,1.02380952 C16.6111633,1.05227312 15.2486429,1.11558009 14.5273367,1.33543684" id="Fill-3"></path>
                        <path d="M32.9421837,3.91262771 C33.5949082,4.42497245 35.0811633,5.6705002 35.0926735,5.68080598 C33.6284796,4.38522157 33.5718878,4.33418339 32.5565918,3.62210272 L32.5,3.58333333 C32.5767347,3.63731602 32.6913571,3.71730854 32.9421837,3.91262771" id="Fill-4"></path>
                        <path d="M28.5,1.53571429 C28.557551,1.55730736 28.6165408,1.58037269 28.675051,1.60392877 C28.6146224,1.58675246 28.557551,1.55877961 28.5,1.53571429 M28.8870306,1.69815309 C28.8285204,1.672634 28.7508265,1.64073514 28.6937551,1.61619756 C30.2250918,2.20902558 34.0685408,3.98211137 37.019949,7.97192247 C39.7008673,11.5990681 40.9175918,14.9425592 41.3391531,19.0864664 C40.8365408,14.144597 38.6721429,11.869963 36.9019694,11.4238697 C35.6718163,11.1132239 34.5423776,11.5598079 33.0028878,11.8552405 C39.2231939,9.44319599 33.3798469,3.94923101 29.7881837,2.12412554 C29.7148061,2.08682841 29.3301735,1.8929815 28.8870306,1.69815309" id="Fill-5"></path>
                        <path d="M22.5557239,0.999149616 C22.9983872,1.65086784 25.3632545,1.96445816 25.5325504,1.39322321 C25.6241525,1.08110514 24.8189178,0.631576613 23.6396014,0.520666735 C22.629581,0.459813527 22.3696423,0.726291686 22.5557239,0.999149616" id="Fill-6"></path>
                        <path d="M17.5,1.0886272 C17.549398,1.08273818 17.5978367,1.07930291 17.6467551,1.07341389 C17.6031122,1.08519193 17.6031122,1.08519193 17.5,1.0886272 M17.8112551,1.07930291 C17.7618571,1.07930291 17.6947143,1.08126592 17.6443571,1.08273818 C18.3944388,1.00029189 22.2513163,0.708294649 24.5667857,2.93483499 C25.4525918,0.945818459 28.487449,1.78892983 28.8303571,1.89247844 C26.7839388,1.41399555 25.7724796,3.03445758 27.4798265,5.92007741 C28.7737653,8.10588536 32.4388061,11.533295 33.0397347,12.108456 C27.1081429,7.35356305 25.735551,5.92007741 25.1120816,5.12456895 C24.7557449,5.87198375 23.5179184,7.60433715 17.6784082,11.0356728 C24.0023061,6.67779799 24.1150102,2.30912661 19.7176327,1.28394636 C19.4476224,1.22113015 18.722,1.0763584 17.8112551,1.07930291" id="Fill-7"></path>
                        <path d="M10.0817503,3.56800106 C9.91868907,3.81141389 10.0026176,3.93066654 10.3061993,3.8874804 C11.2404442,3.75056068 13.1281176,2.3479924 12.7420462,2.07906048 C12.5904952,1.97109511 12.1248115,2.16984954 11.9492809,2.2444438 C11.0203115,2.67237926 10.3061993,3.23379917 10.0817503,3.56800106" id="Fill-8"></path>
                        <path d="M7.99094898,5.27568201 L8.05857143,5.21679181 L8.06672449,5.21041204 C8.15065306,5.1407253 10.1217755,3.5241893 10.6709082,5.23102361 C12.7705612,2.42245179 16.3593469,1.35261314 17.8038776,1.02380952 C13.1005204,2.34638528 9.52612245,6.48047737 14.2294796,9.47749784 C15.0366327,9.99180559 16.6029796,10.7750453 17.5434592,11.0704778 C11.5514388,9.70520661 10.5006531,8.21135852 10.1620612,7.59644667 C8.58564286,10.6454868 6.2274898,13.8162334 4.5,16.7573081 C7.49169388,10.7367666 8.00485714,9.75477253 8.43696939,8.38263085 C9.61340816,4.64555687 8.3012449,5.08527037 8.28781633,5.08919638 C8.15736735,5.13778079 8.03171429,5.2423109 7.99094898,5.27568201" id="Fill-9"></path>
                        <path d="M1.1968407,26.9431299 C-0.286057254,20.6462952 0.962320297,16.866035 1.59825907,14.6345872 C1.47116724,15.4919303 1.18772846,17.0878548 4.09981009,16.6967257 C-0.28222052,16.2305116 3.45092234,10.4597627 4.70025907,8.70238095 L4.59139173,8.85156946 C3.59671826,10.344436 3.29793254,10.7954368 2.33347336,12.7766013 C1.58770805,14.6085773 1.58147336,15.099329 1.06015703,17.1148461 C0.579126419,19.2383286 0.893259072,24.5909571 1.1968407,26.9431299 C1.1968407,26.9431299 0.884146827,23.9799713 0.880310093,23.9137198" id="Fill-10"></path>
                        <path d="M37.0014893,15.6898509 C37.0552036,17.3883424 38.2138975,18.9700351 38.8795709,18.2520654 C39.4651526,17.620468 39.1639689,15.4778462 38.138122,14.5346215 C37.3093873,13.9172558 36.9746322,14.8393782 37.0014893,15.6898509" id="Fill-11"></path>
                        <path d="M33.2442245,11.7980199 C33.1847551,11.7435465 33.3228776,11.7980199 33.2442245,11.7980199 C33.599602,11.7980199 37.8094592,14.4608385 38.0521327,20.384702 C39.8721837,17.0868507 41.2044898,18.4521219 41.5277347,19.0331718 C41.5248571,19.0292458 41.5315714,19.0370979 41.5277347,19.0331718 C41.4092755,18.9296232 40.5532041,18.2548397 38.9868571,22.1180369 C38.5595408,23.17119 38.4473163,23.5731156 36.174051,33.0519841 C36.5975306,30.1766701 36.725102,26.8591888 37.0411531,23.9750412 C36.4095306,24.8083375 35.0417347,26.5367649 30.5,28.1449582 C39.4822755,23.4548444 36.8358878,15.0600463 33.2965,11.809798" id="Fill-12"></path>
                        <path d="M24.0212691,12.1996172 C24.2946365,13.9491469 26.5496773,14.6803669 27.470014,13.3200033 C28.2066671,12.2300438 27.4656977,10.4540135 25.7967181,10.2390643 C24.3536263,10.1998041 23.889861,11.3619041 24.0212691,12.1996172" id="Fill-13"></path>
                        <path d="M17.5009592,10.75 L17.5,10.75 C17.5690612,10.751963 17.6405204,10.7563798 17.7105408,10.7632503 C17.698551,10.7671763 17.685602,10.7720838 17.6736122,10.7779728 C17.6692959,10.7794451 17.6645,10.7828804 17.6597041,10.7828804 C17.6309286,10.7814081 17.6055102,10.7706116 17.5776939,10.763741 C17.5522755,10.7593243 17.525898,10.753926 17.5009592,10.75 M17.957051,10.8569839 C17.8836735,10.836863 17.7863163,10.8137977 17.7129388,10.795628 C17.7733673,10.7941677 23.8948776,10.9207816 25.9163571,16.2483817 C27.84,11.4576639 32.8407041,11.8365242 33.0531633,11.8537005 C29.8509286,12.2767285 24.9298367,17.2195793 30.2307653,28.1510728 C28.7963061,26.0437851 26.6064898,22.6674136 25.8209184,20.1582003 C25.3739388,21.2059551 24.3178776,23.4094301 19.9809286,27.3727407 C27.1987857,18.7021401 23.1304082,12.2904695 17.957051,10.8569839" id="Fill-14"></path>
                        <path d="M8.5570438,15.7298182 C8.93016625,17.2089437 10.6581356,17.1417108 11.4926254,15.6140008 C12.3242377,14.0911984 11.4552173,12.4250964 10.0610438,12.8711897 C10.0106867,12.8888568 9.94066625,12.9173204 9.89126829,12.9369504 C8.64289074,13.5665848 8.35993155,14.9500138 8.5570438,15.7298182" id="Fill-15"></path>
                        <path d="M4.65394898,16.5889634 C4.60790816,16.5919079 4.54652041,16.6002507 4.5,16.6061397 C4.5350102,16.5840559 8.39380612,14.6995695 11.161051,18.6962511 C11.7360816,13.2930752 16.5876327,11.1426013 17.6211531,10.75 C11.9897857,13.9128945 10.9452347,22.3381192 19.9083265,27.3943337 C18.4158367,26.806904 14.2376327,25.0029008 12.2008061,22.4200748 C12.1854592,23.575795 11.9317551,24.03612 10.6709082,31.437146 C11.176398,17.9601236 6.70756122,16.4250523 4.65394898,16.5889634" id="Fill-16"></path>
                        <path d="M0.641719564,24.5437672 C0.813893034,25.2077542 1.09877058,25.3962028 1.31890324,24.9962402 C1.81000528,24.1020907 1.5385563,21.3607518 0.972637931,21.5055236 C0.853219564,21.5354594 0.773607319,21.7013335 0.725168544,21.8004653 C0.397607319,22.6538825 0.480097115,23.9180588 0.641719564,24.5437672" id="Fill-17"></path>
                        <path d="M7.88643812,37.1736608 C6.79009118,35.4442519 6.80112179,35.8250752 3.79072383,30.133828 C4.24441771,30.9926434 6.40497893,31.675279 10.5548871,31.8048375 C1.86420342,30.1725974 1.66517281,21.2374817 4.22763199,16.8928571 C3.88856056,17.3144128 0.621580973,24.7183833 2.09680546,27.4273325 C1.33761159,26.0306533 1.00237689,25.5256698 1.00045852,25.5423554 C0.988468728,25.6341259 1.20524424,28.521218 2.40566261,31.0245423 C3.98591771,34.3209213 6.94547893,36.4709044 7.88643812,37.1736608" id="Fill-18"></path>
                        <path d="M10.4447625,38.15854 C10.8869461,38.5491784 11.1416094,38.5575212 11.0500074,38.1786609 C10.8437829,37.334568 9.25345634,35.5286018 9.02277267,35.8775263 C8.97289511,35.9521205 9.01653797,36.1042535 9.04387471,36.1935703 C9.31628287,36.9390221 10.0265584,37.7894948 10.4447625,38.15854" id="Fill-19"></path>
                        <path d="M21.9077669,42.7181732 C20.4589199,42.5910685 18.3069914,42.7721558 15.9675424,41.0559972 C16.6193077,41.5344801 20.0464709,42.4099811 22.3624199,40.6786092 C16.7962771,43.3517336 11.7284301,35.916355 10.8267975,31.7380952 C10.8651648,32.1827163 9.97504238,36.5278316 13.6237771,39.9002771 C11.3461954,38.9968032 8.98996074,38.4515781 9.00003217,38.4613932 C9.30505258,38.7141303 9.07149136,38.5026163 9.12616483,38.5649418 L9.50887911,38.8819673 C9.85130768,39.1734738 12.2847567,41.0191909 14.5632975,41.7052617 C17.7075016,42.6543754 21.0579301,42.878649 21.9077669,42.7181732" id="Fill-20"></path>
                        <path d="M23.4834286,42.3056033 C24.788398,42.1137194 26.7058061,41.8703066 29.1042449,40.4029591 C28.4342551,40.8112645 24.713102,41.772647 23,40.5972967 C27.4040918,42.278612 34.4684796,36.5338729 36.0703163,33.2738095 C35.9513776,33.6153727 35.2708367,36.5377989 31.3981327,39.3645285 C33.5850714,38.5219079 35.4794592,36.2796635 35.4689082,36.4784179 C35.4602755,36.6276065 35.5288571,36.4283613 35.4689082,36.4784179 C35.1926633,36.9132239 33.1433673,39.1397643 30.1593469,40.600732 C27.1125,42.0926171 24.2023367,42.373327 23.4834286,42.3056033" id="Fill-21"></path>
                        <path d="M36,35.6343758 C37.1164898,34.4845447 37.6843265,33.9280323 39.6516122,29.5412031 C39.358102,30.1968473 38.1667959,31.8806163 36.0028776,32.9592885 C40.0827653,30.9251228 41.9104898,22.330098 41.3565612,18.9404762 C41.4193878,19.3212995 42.2778571,23.9785329 39.8098776,29.7738194 C38.8113673,32.1186309 36.7630306,35.1936808 36,35.6343758" id="Fill-22"></path>
                        <path d="M32.0214842,31.594264 C31.4699536,32.5482853 31.1721271,33.8114801 32.0809536,33.5989846 C33.2799332,33.3168024 34.7239842,31.1015493 33.9460863,30.3021149 C33.3230965,29.8884112 32.4545557,30.8483215 32.0214842,31.594264" id="Fill-23"></path>
                        <path d="M30.220949,28.2023648 C30.1945714,28.1547619 30.220949,28.2023648 30.1926531,28.1547619 C30.2243061,28.178318 32.9373571,30.6227521 30.0185612,34.9227182 C33.4481224,32.1597863 35.1712959,32.6048981 35.8906837,33.1177336 C35.8906837,33.1216596 35.8892449,33.1250948 35.8878061,33.1270579 C34.0413776,32.7001039 31.126898,35.0090905 29.199898,36.539745 C26.9146429,38.3511094 24.941602,39.9136627 22.5,40.5349543 C22.5892041,40.5109075 22.7086224,40.4775364 22.7978265,40.4505451 C24.5267551,39.8744026 25.5698673,39.0744774 27.2537143,37.49622 C25.6859286,38.5380858 23.9963265,39.3645116 22.5,40.5349543 L22.5887245,40.4633046 C24.0179082,39.32427 25.5693878,38.3712302 26.9443776,37.1526938 C28.422,35.8438591 29.1049388,34.8535222 29.3317857,34.4874215 C31.098602,31.6253577 30.866,29.4150122 30.220949,28.2023648" id="Fill-24"></path>
                        <path d="M24.0000086,29.2357863 C24.0028862,30.4872031 24.7467331,31.6124967 25.6555597,30.6378638 C26.5907637,29.6406564 26.7989066,27.3493369 25.4205597,27.1309524 C24.4949474,27.1334061 23.9976107,28.2189488 24.0000086,29.2357863" id="Fill-25"></path>
                        <path d="M20.0517959,27.6683762 C20,27.6418756 20.0517959,27.6683762 20,27.6428571 C20.0431633,27.6477647 24.274602,28.2562967 24.490898,33.2295742 C26.1953673,28.85256 29.588,28.4687922 30.2498367,28.4344396 C26.4202959,29.5813262 24.9911122,34.6262534 24.4525306,36.5259532 C23.9216224,38.3986616 23.5393878,39.7492102 22.6113776,40.8215026 C22.6535816,40.7675199 22.7120918,40.6939071 22.7571735,40.6409059 C23.5374694,39.5102141 23.6343469,38.5188957 23.8266633,36.5411665 C22.5461531,39.9587611 22.5461531,39.9587611 22.6113776,40.8215026 C22.6080204,40.7964742 22.6027449,40.7631031 22.5998673,40.7370933 C22.3883673,37.943244 23.8947653,35.3270468 23.3360408,32.4983542 C22.892898,30.2561098 21.7893571,28.5242471 20.0517959,27.6683762" id="Fill-26"></path>
                        <path d="M14.4821759,31.1584261 C15.1785433,32.2130515 16.4547372,32.8392506 16.6518494,31.5917599 C16.853278,30.3320003 15.7516555,28.2983254 14.5176657,28.7242978 C13.761829,29.1380015 13.9071453,30.2863604 14.4821759,31.1584261" id="Fill-27"></path>
                        <path d="M10.8803163,31.6891047 C10.8304388,31.6866509 10.5503571,31.7190405 10.5,31.716096 C10.5302143,31.7033365 13.815898,30.5510516 17.2632041,34.3931464 C15.7030918,30.0293825 19.0688673,28.0040504 19.7609184,27.6428571 C19.0237857,28.2587505 17.383102,30.0480311 18.0348673,33.3380303 C18.6401122,36.393941 21.1757143,38.1621192 22.3722959,40.8215026 C22.3435204,40.7675199 22.3070714,40.6948886 22.2811735,40.6423782 C22.0116429,40.1908867 22.0116429,40.1908867 19.2041122,37.2704235 C20.1431531,38.8707647 20.8222551,40.0279571 22.3722959,40.8215026 L22.2648673,40.7719366 C17.9375102,38.5125159 16.4704388,32.1278367 10.8803163,31.6891047" id="Fill-28"></path>
                        <path d="M8,5.41432035 C8.05179592,5.37117985 8.09687755,5.32803935 8.14771429,5.28394018 C8.09687755,5.32803935 8.047,5.37022117 8,5.41432035 M8.19279592,5.24367572 L8.10359184,5.32132861 C8.18320408,5.25422117 8.25802041,5.18615506 8.33763265,5.11904762 C8.29446939,5.15739473 8.23691837,5.20628729 8.19279592,5.24367572" id="Fill-29"></path>
                        <path d="M4.12620946,10.1502732 C3.74301558,10.5850791 3.51520946,10.7568422 3.5013013,10.622867 C3.44135232,10.0511413 5.47146456,7.37850771 5.71653599,7.70632983 C5.75634211,7.75982176 5.70262783,7.89575997 5.66953599,7.97869701 C5.32710742,8.71825978 4.36504619,9.87986899 4.12620946,10.1502732" id="Fill-30"></path>
                        <path d="M5.23335714,12.1024439 C3.99840816,11.606294 2.26132653,12.0715266 1,17.114 C1.55153061,15.0813066 1.65080612,14.7142243 2.44357143,12.8307194 C3.29532653,11.1032735 3.49867347,10.6925144 4.7014898,8.90568752 L4.81035714,8.75649902 C5.81078571,7.39564463 6.9042551,6.20655333 8.15455102,5.11904762 C4.99643878,7.87265525 3.32841837,11.096403 2.70207143,12.3105226 C3.13706122,11.5974604 3.79554082,10.515353 5.25445918,12.1127497 C5.24918367,12.1107867 5.23863265,12.1063699 5.23335714,12.1024439" id="Fill-31"></path>
                        <path d="M52.615,12.9804494 C52.615,14.5537993 53.1310408,15.8474207 54.163602,16.8613137 C55.1884898,17.8756974 56.375,18.3831346 57.7173776,18.3831346 C59.1748571,18.3831346 60.4054898,17.8663731 61.4073571,16.8343223 C62.4082653,15.789512 62.910398,14.5169929 62.910398,13.0172558 C62.910398,11.4988701 62.4149796,10.2273325 61.4255816,9.20068005 C60.4414592,8.16813853 59.2228163,7.65186777 57.7715714,7.65186777 C56.3251224,7.65186777 55.106,8.16813853 54.1089286,9.20068005 C53.1123367,10.2214435 52.615,11.4807123 52.615,12.9804494 Z M50.5,12.9573841 C50.5,10.951682 51.2169898,9.22914364 52.6504898,7.79025974 C54.0787143,6.35039433 55.7951735,5.63095238 57.7989082,5.63095238 C59.7781837,5.63095238 61.4764184,6.3567741 62.8926531,7.80841755 C64.3141633,9.26055175 65.025398,11.0046832 65.025398,13.0408119 C65.025398,15.0887186 64.3108061,16.8264703 62.8840204,18.2540669 C61.4490816,19.6870618 59.7182347,20.4035592 57.691,20.4035592 C55.8973265,20.4035592 54.285898,19.7665636 52.8576735,18.4940445 C51.286051,17.0855872 50.5,15.2393794 50.5,12.9573841 Z" id="Fill-32"></path>
                        <path d="M69.0958163,12.6104734 L69.8789898,12.6104734 C71.8050306,12.6104734 72.768051,11.8507898 72.768051,10.3314227 C72.768051,8.86113066 71.7752959,8.12598465 69.7888265,8.12598465 L69.0958163,8.12598465 L69.0958163,12.6104734 Z M69.0958163,14.603416 L69.0958163,20.3883967 L67,20.3883967 L67,6.14285714 L69.3739796,6.14285714 C70.5384286,6.14285714 71.418,6.22579418 72.0117347,6.39166824 C72.6117041,6.55754231 73.1387755,6.87113262 73.5953469,7.3324392 C74.3929082,8.13187367 74.7924082,9.14085911 74.7924082,10.3589048 C74.7924082,11.6633227 74.366051,12.696355 73.5138163,13.4594738 C72.6620612,14.2221019 71.5134388,14.603416 70.0684286,14.603416 L69.0958163,14.603416 Z" id="Fill-33"></path>
                        <polyline id="Fill-34" points="84.6677143 8.16328178 79.0972551 8.16328178 79.0972551 11.5862747 84.5046531 11.5862747 84.5046531 13.6066993 79.0972551 13.6066993 79.0972551 18.3679721 84.6677143 18.3679721 84.6677143 20.3883967 77 20.3883967 77 6.14285714 84.6677143 6.14285714 84.6677143 8.16328178"></polyline>
                        <polyline id="Fill-35" points="87 20.3338217 87 5.11904762 97.1332959 15.9882157 97.1332959 6.08828217 99.230551 6.08828217 99.230551 21.2014707 89.0972551 10.3597847 89.0972551 20.3338217 87 20.3338217"></polyline>
                        <polyline id="Fill-36" points="115.166276 8.16328178 109.596776 8.16328178 109.596776 11.5862747 115.004653 11.5862747 115.004653 13.6066993 109.596776 13.6066993 109.596776 18.3679721 115.166276 18.3679721 115.166276 20.3883967 107.5 20.3883967 107.5 6.14285714 115.166276 6.14285714 115.166276 8.16328178"></polyline>
                        <path d="M119.595816,18.3679721 L120.541571,18.3679721 C121.482531,18.3679721 122.265704,18.2663865 122.890133,18.0632153 C123.514082,17.8477753 124.078082,17.5067029 124.582133,17.0390165 C125.613735,16.0732172 126.130255,14.8154207 126.130255,13.2656269 C126.130255,11.7030736 125.619969,10.4359528 124.600357,9.46377371 C123.681939,8.59661551 122.32901,8.16328178 120.541571,8.16328178 L119.595816,8.16328178 L119.595816,18.3679721 Z M117.5,20.3883967 L117.5,6.14285714 L120.415918,6.14285714 C121.81249,6.14285714 122.91699,6.28370287 123.72702,6.56686659 C124.59652,6.84365053 125.385449,7.31379063 126.093327,7.9792499 C127.528265,9.31949272 128.244776,11.081782 128.244776,13.2656269 C128.244776,15.4553609 127.497571,17.2264837 126.004122,18.5799768 C125.253561,19.2567233 124.468949,19.7273542 123.646449,19.9913786 C122.877663,20.2563845 121.78851,20.3883967 120.379469,20.3883967 L117.5,20.3883967 Z" id="Fill-37"></path>
                        <path d="M132.596776,6.14285714 L132.596776,14.7167796 C132.596776,15.9397328 132.791969,16.8343731 133.181878,17.4002098 C133.763622,18.2173113 134.582286,18.6265982 135.638347,18.6265982 C136.700643,18.6265982 137.522663,18.2173113 138.104888,17.4002098 C138.493837,16.8525309 138.68951,15.9583813 138.68951,14.7167796 L138.68951,6.14285714 L140.786286,6.14285714 L140.786286,15.3135336 C140.786286,16.814743 140.329714,18.0509465 139.41801,19.0231255 C138.391684,20.105233 137.131796,20.6470228 135.638347,20.6470228 C134.144898,20.6470228 132.887408,20.105233 131.868276,19.0231255 C130.956571,18.0509465 130.5,16.814743 130.5,15.3135336 L130.5,6.14285714 L132.596776,6.14285714" id="Fill-38"></path>
                        <path d="M153.96251,6.66938292 L153.96251,9.21147658 C152.750102,8.17157379 151.49549,7.65235852 150.199633,7.65235852 C148.771408,7.65235852 147.567633,8.17795356 146.590704,9.2296344 C145.607541,10.2754262 145.115,11.5548158 145.115,13.0678032 C145.115,14.5631236 145.607541,15.8243554 146.590704,16.8514986 C147.574827,17.8781511 148.78052,18.3924589 150.207786,18.3924589 C150.945878,18.3924589 151.573663,18.2687895 152.089224,18.0229229 C152.377459,17.9002349 152.675765,17.7338701 152.984143,17.5248099 C153.294439,17.3157497 153.619122,17.0635033 153.96251,16.7680708 L153.96251,19.3651287 C152.761612,20.0634683 151.501724,20.4128835 150.181888,20.4128835 C148.195898,20.4128835 146.499582,19.7017843 145.097255,18.2810582 C143.698765,16.8480634 143,15.119636 143,13.0957761 C143,11.2814671 143.584622,9.66345887 144.756265,8.24273278 C146.194082,6.50154585 148.057296,5.63095238 150.344469,5.63095238 C151.591408,5.63095238 152.797582,5.97742306 153.96251,6.66938292" id="Fill-39"></path>
                        <path d="M163.898347,14.7794943 L161.83898,9.93577529 L159.679378,14.7794943 L163.898347,14.7794943 Z M164.754418,16.7999189 L158.805082,16.7999189 L157.258878,20.260209 L155,20.260209 L161.874469,5.11904762 L168.507704,20.260209 L166.212857,20.260209 L164.754418,16.7999189 Z" id="Fill-40"></path>
                        <polyline id="Fill-41" points="172.792296 8.16328178 172.792296 20.3883967 170.694082 20.3883967 170.694082 8.16328178 167.5 8.16328178 167.5 6.14285714 175.977265 6.14285714 175.977265 8.16328178 172.792296 8.16328178"></polyline>
                        <polygon id="Fill-42" points="177.5 20.3883967 179.596296 20.3883967 179.596296 6.14285714 177.5 6.14285714"></polygon>
                        <path d="M184.114041,12.9804494 C184.114041,14.5537993 184.63152,15.8474207 185.662163,16.8613137 C186.688969,17.8756974 187.873561,18.3831346 189.217857,18.3831346 C190.674857,18.3831346 191.90501,17.8663731 192.906398,16.8343223 C193.909224,15.789512 194.410398,14.5169929 194.410398,13.0172558 C194.410398,11.4988701 193.9145,10.2273325 192.924143,9.20068005 C191.9405,8.16813853 190.722816,7.65186777 189.271571,7.65186777 C187.825602,7.65186777 186.605041,8.16813853 185.608449,9.20068005 C184.612816,10.2214435 184.114041,11.4807123 184.114041,12.9804494 Z M182,12.9573841 C182,10.951682 182.717469,9.22914364 184.151449,7.79025974 C185.577755,6.35039433 187.295173,5.63095238 189.298429,5.63095238 C191.278184,5.63095238 192.975459,6.3567741 194.391694,7.80841755 C195.813684,9.26055175 196.524439,11.0046832 196.524439,13.0408119 C196.524439,15.0887186 195.810327,16.8264703 194.382582,18.2540669 C192.949561,19.6870618 191.217755,20.4035592 189.19052,20.4035592 C187.396847,20.4035592 185.784939,19.7665636 184.357673,18.4940445 C182.786531,17.0855872 182,15.2393794 182,12.9573841 Z" id="Fill-43"></path>
                        <polyline id="Fill-44" points="198.5 20.3338217 198.5 5.11904762 208.632816 15.9882157 208.632816 6.08828217 210.729112 6.08828217 210.729112 21.2014707 200.596776 10.3597847 200.596776 20.3338217 198.5 20.3338217"></polyline>
                        <path d="M58.9312245,25.3698815 L58.9312245,27.3250362 C57.9974592,26.525111 57.0344388,26.1261299 56.0378469,26.1261299 C54.939102,26.1261299 54.0139694,26.5300185 53.2619694,27.339268 C52.5051735,28.1431192 52.1277347,29.1275671 52.1277347,30.2911393 C52.1277347,31.4409705 52.5051735,32.410205 53.2619694,33.2012967 C54.0182857,33.9914069 54.9458163,34.3859713 56.0445612,34.3859713 C56.6119184,34.3859713 57.0939082,34.2912562 57.4914898,34.1018261 C57.7116224,34.0076017 57.9418265,33.8795155 58.1797041,33.7190397 C58.4166224,33.558564 58.6669694,33.364717 58.9312245,33.1370083 L58.9312245,35.1348583 C58.0075306,35.6717407 57.0387551,35.9401818 56.0234592,35.9401818 C54.497398,35.9401818 53.191949,35.3929937 52.1143061,34.301562 C51.0376224,33.1983522 50.5,31.8698874 50.5,30.3127324 C50.5,28.9170346 50.9498571,27.6734699 51.8495714,26.5795844 C52.9574286,25.2413046 54.3899694,24.5714286 56.1486327,24.5714286 C57.1082959,24.5714286 58.0353469,24.8379067 58.9312245,25.3698815" id="Fill-45"></path>
                        <path d="M69.1277347,30.2239063 C69.1277347,31.4341 69.5243571,32.4293444 70.3166429,33.2091488 C71.1074898,33.9894439 72.0177551,34.3791007 73.0522347,34.3791007 C74.1730408,34.3791007 75.1192755,33.9815919 75.8895,33.1885372 C76.6602041,32.384686 77.0453163,31.4061271 77.0453163,30.2528607 C77.0453163,29.0848717 76.665,28.1068036 75.9038878,27.3171842 C75.1466122,26.523148 74.2090102,26.1266206 73.0939592,26.1266206 C71.9803469,26.1266206 71.0417857,26.523148 70.2763571,27.3171842 C69.5094898,28.1018961 69.1277347,29.0716214 69.1277347,30.2239063 Z M67.5,30.20673 C67.5,28.6642975 68.0529694,27.339268 69.1545918,26.2331137 C70.2523776,25.1254872 71.5722143,24.5714286 73.114102,24.5714286 C74.6368061,24.5714286 75.9417755,25.1303947 77.0299694,26.2468548 C78.1239184,27.3633148 78.6720918,28.7045392 78.6720918,30.2705277 C78.6720918,31.8448591 78.1224796,33.1826482 77.0246939,34.2799689 C75.9221122,35.3821972 74.5917245,35.9333113 73.0311327,35.9333113 C71.6518265,35.9333113 70.4125612,35.4435411 69.3152551,34.46351 C68.1047653,33.3814026 67.5,31.961658 67.5,30.20673 Z" id="Fill-46"></path>
                        <polyline id="Fill-47" points="88 35.2491019 88 23.547619 95.7938469 31.9065923 95.7938469 24.2925801 97.4062347 24.2925801 97.4062347 35.9165242 89.6119082 27.5776718 89.6119082 35.2491019 88 35.2491019"></polyline>
                        <path d="M113.077122,26.4097843 L111.768796,27.2043113 C111.524204,26.7695053 111.290643,26.4853601 111.069071,26.3533479 C110.839347,26.2012149 110.540561,26.1261299 110.176551,26.1261299 C109.728612,26.1261299 109.357888,26.2561791 109.06198,26.5162774 C108.76751,26.7719591 108.618837,27.0934014 108.618837,27.481586 C108.618837,28.0174868 109.006347,28.4473853 109.782327,28.7747166 L110.84798,29.2213007 C111.715082,29.5824939 112.349582,30.0207351 112.75148,30.5389689 C113.153378,31.0576934 113.354327,31.6932168 113.354327,32.4460299 C113.354327,33.4540338 113.026765,34.2883117 112.370684,34.9459189 C111.710286,35.6084337 110.892102,35.9401818 109.914694,35.9401818 C108.985724,35.9401818 108.220776,35.6575089 107.61649,35.0916722 C107.020837,34.5277985 106.649153,33.7327808 106.5,32.7125081 L108.134929,32.3424813 C108.208786,32.985366 108.336837,33.4294963 108.522439,33.6763444 C108.854796,34.1489382 109.339184,34.3859713 109.975602,34.3859713 C110.478214,34.3859713 110.896898,34.2137174 111.227337,33.868719 C111.561133,33.5237206 111.726592,33.0849886 111.726592,32.556449 C111.726592,32.3434628 111.698296,32.1491251 111.639306,31.9719638 C111.583194,31.7943117 111.492551,31.6308914 111.369776,31.4821936 C111.247959,31.3330051 111.090653,31.1931409 110.896898,31.0640732 C110.701704,30.934024 110.4715,30.8093731 110.204367,30.6911019 L109.173245,30.2518792 C107.71001,29.6188095 106.979112,28.6922704 106.979112,27.4712802 C106.979112,26.6497619 107.285092,25.9612373 107.899449,25.4091417 C108.513806,24.8501755 109.276837,24.5714286 110.190939,24.5714286 C111.422531,24.5714286 112.385071,25.1848682 113.077122,26.4097843" id="Fill-48"></path>
                        <path d="M123.625816,30.2239063 C123.625816,31.4341 124.024357,32.4293444 124.817122,33.2091488 C125.606531,33.9894439 126.517276,34.3791007 127.550796,34.3791007 C128.672082,34.3791007 129.618796,33.9815919 130.3895,33.1885372 C131.158286,32.384686 131.545316,31.4061271 131.545316,30.2528607 C131.545316,29.0848717 131.164041,28.1068036 130.402929,27.3171842 C129.645653,26.523148 128.70901,26.1266206 127.593,26.1266206 C126.479867,26.1266206 125.541786,26.523148 124.774918,27.3171842 C124.008531,28.1018961 123.625816,29.0716214 123.625816,30.2239063 Z M122,30.20673 C122,28.6642975 122.551531,27.339268 123.653633,26.2331137 C124.751418,25.1254872 126.072214,24.5714286 127.614102,24.5714286 C129.137286,24.5714286 130.441296,25.1303947 131.530929,26.2468548 C132.623439,27.3633148 133.171133,28.7045392 133.171133,30.2705277 C133.171133,31.8448591 132.62152,33.1826482 131.524214,34.2799689 C130.421633,35.3821972 129.089806,35.9333113 127.530173,35.9333113 C126.149908,35.9333113 124.911602,35.4435411 123.812857,34.46351 C122.604765,33.3814026 122,31.961658 122,30.20673 Z" id="Fill-49"></path>
                        <path d="M143.611908,29.6026147 L144.124592,29.6026147 C145.652092,29.6026147 146.415122,29.0038977 146.415122,27.8069543 C146.415122,26.6855868 145.672714,26.1251484 144.186939,26.1251484 L143.611908,26.1251484 L143.611908,29.6026147 Z M145.619959,30.858939 L148.928184,35.5279504 L146.955622,35.5279504 L143.9035,31.0424801 L143.611908,31.0424801 L143.611908,35.5279504 L142,35.5279504 L142,24.5714286 L143.889112,24.5714286 C145.300551,24.5714286 146.320643,24.8428142 146.948429,25.3870579 C147.640959,25.9931362 147.987224,26.7920799 147.987224,27.785852 C147.987224,28.5612397 147.769969,29.2291527 147.336418,29.7871373 C146.902388,30.3461035 146.330235,30.7023892 145.619959,30.858939 Z" id="Fill-50"></path>
                        <polyline id="Fill-51" points="160.569816 26.1251484 160.569816 35.5279504 158.957429 35.5279504 158.957429 26.1251484 156.5 26.1251484 156.5 24.5714286 163.020051 24.5714286 163.020051 26.1251484 160.569816 26.1251484"></polyline>
                        <polygon id="Fill-52" points="171.5 35.5279504 173.112388 35.5279504 173.112388 24.5714286 171.5 24.5714286"></polygon>
                        <path d="M184.611908,24.5714286 L184.611908,31.1661495 C184.611908,32.1064298 184.761541,32.7954451 185.061286,33.2297603 C185.509224,33.8584132 186.138929,34.1724943 186.950878,34.1724943 C187.767622,34.1724943 188.399724,33.8584132 188.846704,33.2297603 C189.147408,32.8086954 189.297041,32.1216431 189.297041,31.1661495 L189.297041,24.5714286 L190.909429,24.5714286 L190.909429,31.6254931 C190.909429,32.7792503 190.558847,33.730327 189.858163,34.4782326 C189.069235,35.3105474 188.100459,35.7267048 186.950878,35.7267048 C185.801296,35.7267048 184.834918,35.3105474 184.051265,34.4782326 C183.350582,33.730327 183,32.7792503 183,31.6254931 L183,24.5714286 L184.611908,24.5714286" id="Fill-53"></path>
                        <polyline id="Fill-54" points="200 35.3281129 202.250245 23.547619 205.917684 32.0641236 209.71749 23.547619 211.738969 35.3281129 210.083418 35.3281129 209.052296 28.7142527 205.889867 35.8326057 202.816643 28.7068914 201.667541 35.3281129 200 35.3281129"></polyline>
                    </g>
                </g>
            </g>
        </g>
    </g>
</svg>