<?xml version="1.0" encoding="UTF-8"?>
<svg viewBox="0 0 424 117" version="1.1" xmlns="http://www.w3.org/2000/svg" xmlns:xlink="http://www.w3.org/1999/xlink">
    <!-- Generator: Sketch 52.2 (67145) - http://www.bohemiancoding.com/sketch -->
    <title>logo/fc/logo-inverted</title>
    <desc>Created with Sketch.</desc>
    <g id="Symbols" stroke="none" stroke-width="1" fill="none" fill-rule="evenodd">
        <g id="logo/desktop/inverted" transform="translate(-28.000000, -14.000000)" fill="#FFFFFF">
            <g id="logo/fc/logo-inverted" transform="translate(28.000000, 14.000000)">
                <g id="Group" transform="translate(1.000000, 0.000000)">
                    <path d="M57.0479592,3.01342149 C57.0345306,3.0086281 57.010551,3.00383471 57,3 C57.5937347,3.1246281 57.5937347,3.1246281 58.0886735,3.33841322 L57.8862857,3.26076033 C57.6359388,3.17447934 57.47,3.12079339 57.0479592,3.01342149" id="Fill-1"></path>
                    <path d="M35.1026327,1.33447934 C35.0719388,1.34406612 35.0306939,1.35557025 35,1.36323967 C39.6079184,0.00766942149 39.8064694,0.00766942149 41.7046939,0 L42.3128163,0.00958677686 L42.1583878,0.00958677686 C40.9124082,0.067107438 39.0985918,0.265553719 35.1026327,1.33447934 M47.1883469,0.443867769 C47.0598163,0.420859504 46.8881224,0.398809917 46.7567143,0.377719008 C47.382102,0.480297521 48.2204286,0.605884298 48.843898,0.726677686 L49.4616122,0.855140496 C50.8332449,1.19163636 52.3890408,1.57510744 55.4776122,2.79933884 C54.374551,2.3717686 51.0174082,1.07563636 47.1883469,0.443867769" id="Fill-2"></path>
                    <path d="M28.0546735,2.60876033 C28.0393265,2.61355372 28.0172653,2.62122314 28,2.62793388 C28.444102,2.48029752 29.0349592,2.28664463 29.482898,2.14284298 L29.5260612,2.13229752 C30.0996531,2.0517686 30.0996531,2.0517686 33.3858163,2 C32.2223265,2.05560331 29.4972857,2.17927273 28.0546735,2.60876033" id="Fill-3"></path>
                    <path d="M64.8843673,7.64327273 C66.1898163,8.64413223 69.1623265,11.0772562 69.1853469,11.0973884 C66.2569592,8.56647934 66.1437755,8.46677686 64.1131837,7.07573554 L64,7 C64.1534694,7.10545455 64.3827143,7.26171901 64.8843673,7.64327273" id="Fill-4"></path>
                    <path d="M56,3 C56.115102,3.04218182 56.2330816,3.08723967 56.350102,3.1332562 C56.2292449,3.09970248 56.115102,3.04505785 56,3 M56.7740612,3.31732231 C56.6570408,3.26747107 56.5016531,3.20515702 56.3875102,3.15722314 C59.4501837,4.31530579 67.1370816,7.77900826 73.039898,15.5730579 C78.4017347,22.6586446 80.8351837,29.1901157 81.6783061,37.2851901 C80.6730816,27.6313058 76.3442857,23.1878347 72.8039388,22.3163967 C70.3436327,21.7095537 68.0847551,22.5819504 65.0057755,23.1590744 C77.4463878,18.4471736 65.7596939,7.71477686 58.5763673,4.14945455 C58.4296122,4.07659504 57.6603469,3.69791736 56.7740612,3.31732231" id="Fill-5"></path>
                    <path d="M44.1114478,1.95182716 C44.9967743,3.22495112 49.726509,3.83754616 50.0651008,2.72164534 C50.2483049,2.11192633 48.6378355,1.23377757 46.2792029,1.01711641 C44.2591621,0.898240379 43.7392845,1.41880236 44.1114478,1.95182716" id="Fill-6"></path>
                    <path d="M34,2.12662057 C34.0987959,2.11511644 34.1956735,2.10840569 34.2935102,2.09690156 C34.2062245,2.11990982 34.2062245,2.11990982 34,2.12662057 M34.6225102,2.10840569 C34.5237143,2.10840569 34.3894286,2.1122404 34.2887143,2.11511644 C35.7888776,1.95405858 43.5026327,1.38364536 48.1335714,5.73316602 C49.9051837,1.84764536 55.974898,3.49465363 56.6607143,3.69693462 C52.5678776,2.76222387 50.5449592,5.92777759 53.9596531,11.5648024 C56.5475306,15.8347528 63.8776122,22.5301578 65.0794694,23.653728 C53.2162857,14.3650999 50.471102,11.5648024 49.2241633,10.0107859 C48.5114898,11.470852 46.0358367,14.8549842 34.3568163,21.5580586 C47.0046122,13.0450007 47.2300204,4.51085197 38.4352653,2.50817429 C37.8952449,2.38546354 36.444,2.10265363 34.6225102,2.10840569" id="Fill-7"></path>
                    <path d="M19.1635006,6.97004858 C18.8373781,7.44555271 19.0052353,7.67851139 19.6123985,7.59414775 C21.4808883,7.32667668 25.2562353,4.58677585 24.4840924,4.06142048 C24.1809904,3.85051139 23.249623,4.23877585 22.8985618,4.38449486 C21.040623,5.2204618 19.6123985,6.31718907 19.1635006,6.97004858" id="Fill-8"></path>
                    <path d="M14.981898,10.3059835 L15.1171429,10.1909421 L15.133449,10.1784793 C15.3013061,10.0423471 19.243551,6.88446281 20.3418163,10.2187438 C24.5411224,4.7322314 31.7186939,2.64231405 34.6077551,2 C25.2010408,4.58363636 18.0522449,12.6595372 27.4589592,18.5141818 C29.0732653,19.518876 32.2059592,21.0489256 34.0869184,21.6260496 C22.1028776,18.9590083 20.0013061,16.0407934 19.3241224,14.8395702 C16.1712857,20.7958347 11.4549796,26.9898512 8,32.7352066 C13.9833878,20.9741488 15.0097143,19.0558347 15.8739388,16.3753719 C18.2268163,9.07504132 15.6024898,9.93401653 15.5756327,9.94168595 C15.3147347,10.036595 15.0634286,10.2407934 14.981898,10.3059835" id="Fill-9"></path>
                    <path d="M1.39368141,52.6330909 C-1.57211451,40.3322975 0.924640593,32.9476033 2.19651814,28.5884959 C1.94233447,30.2633058 1.37545692,33.3809256 7.19962019,32.6168595 C-1.56444104,31.7061157 5.90184468,20.4330248 8.40051814,17 L8.18278345,17.291438 C6.19343651,20.2077355 5.59586508,21.0887603 3.66694672,24.9589421 C2.1754161,28.537686 2.16294672,29.4963636 1.12031406,33.4336529 C0.158252838,37.5818512 0.786518145,48.0381488 1.39368141,52.6330909 C1.39368141,52.6330909 0.768293655,46.844595 0.760620185,46.7151736" id="Fill-10"></path>
                    <path d="M73.0029786,30.6499413 C73.1104072,33.9679247 75.4277949,37.0577429 76.7591419,35.6551975 C77.9303052,34.4213793 77.3279378,30.2357925 75.2762439,28.393214 C73.6187745,27.1871975 72.9492643,28.9885528 73.0029786,30.6499413" id="Fill-11"></path>
                    <path d="M65.488449,23.0472948 C65.3695102,22.9408815 65.6457551,23.0472948 65.488449,23.0472948 C66.1992041,23.0472948 74.6189184,28.2490799 75.1042653,39.8212782 C78.7443673,33.3789642 81.4089796,36.0460055 82.0554694,37.1810799 C82.0497143,37.1734105 82.0631429,37.1887493 82.0554694,37.1810799 C81.818551,36.9787989 80.1064082,35.6606171 76.9737143,43.2073278 C76.1190816,45.2646501 75.8946327,46.0498072 71.348102,64.5666667 C72.1950612,58.9497741 72.4502041,52.4691129 73.0823061,46.8349642 C71.8190612,48.4627989 69.0834694,51.8392617 60,54.9808485 C77.964551,45.8187658 72.6717755,29.4196253 65.593,23.070303" id="Fill-12"></path>
                    <path d="M47.0425383,23.8318103 C47.589273,27.2494963 52.0993546,28.677926 53.9400281,26.0204715 C55.4133342,23.8912483 53.9313954,20.4217938 50.5934362,20.001893 C47.7072526,19.9251988 46.779722,22.1953475 47.0425383,23.8318103" id="Fill-13"></path>
                    <path d="M34.0019184,21 L34,21 C34.1381224,21.0038347 34.2810408,21.0124628 34.4210816,21.0258843 C34.397102,21.0335537 34.3712041,21.0431405 34.3472245,21.0546446 C34.3385918,21.0575207 34.329,21.0642314 34.3194082,21.0642314 C34.2618571,21.0613554 34.2110204,21.0402645 34.1553878,21.026843 C34.104551,21.0182149 34.0517959,21.0076694 34.0019184,21 M34.914102,21.2089917 C34.7673469,21.169686 34.5726327,21.1246281 34.4258776,21.0891338 C34.5467347,21.086281 46.7897551,21.3336198 50.8327143,31.7410248 C54.68,22.3824132 64.6814082,23.1225124 65.1063265,23.1560661 C58.7018571,23.9824463 48.8596735,33.6382479 59.4615306,54.9927934 C56.5926122,50.8762314 52.2129796,44.2805289 50.6418367,39.3788099 C49.7478776,41.4255868 47.6357551,45.7300496 38.9618571,53.4723306 C53.3975714,36.5344132 45.2608163,24.0092893 34.914102,21.2089917" id="Fill-14"></path>
                    <path d="M16.1140876,30.7280169 C16.8603325,33.6174715 20.3162713,33.4861326 21.9852509,30.501769 C23.6484753,27.5269921 21.9104345,24.2722814 19.1220876,25.1437194 C19.0213733,25.1782318 18.8813325,25.2338351 18.7825366,25.2721822 C16.2857815,26.5021657 15.7198631,29.2046781 16.1140876,30.7280169" id="Fill-15"></path>
                    <path d="M8.30789796,32.4063471 C8.21581633,32.4120992 8.09304082,32.4283967 8,32.4399008 C8.07002041,32.3967603 15.7876122,28.715438 21.322102,36.5229091 C22.4721633,25.9678678 32.1752653,21.7669421 34.2423061,21 C22.9795714,27.1786777 20.8904694,43.6372562 38.8166531,53.5145124 C35.8316735,52.3669752 27.4752653,48.842876 23.4016122,43.7973554 C23.3709184,46.0550413 22.8635102,46.954281 20.3418163,61.4120992 C21.3527959,35.0848926 12.4151224,32.0861488 8.30789796,32.4063471" id="Fill-16"></path>
                    <path d="M0.283439128,47.9459638 C0.627786067,49.2430547 1.19754117,49.6111869 1.63780648,48.8298646 C2.62001056,47.0831538 2.0771126,41.7279803 0.945275863,42.0107902 C0.706439128,42.0692695 0.547214638,42.3933026 0.450337087,42.5869555 C-0.204785362,44.254096 -0.0398057697,46.7236497 0.283439128,47.9459638" id="Fill-17"></path>
                    <path d="M14.7728762,72.618314 C12.5801824,69.2399339 12.6022436,69.9838678 6.58144766,58.8660826 C7.48883542,60.5437686 11.8099579,61.8772893 20.1097742,62.1303802 C2.72840684,58.9418182 2.33034562,41.4871736 7.45526399,33 C6.77712113,33.8235041 0.243161946,48.2870744 3.19361093,53.5789752 C1.67522317,50.8505785 1.00475378,49.8640992 1.00091705,49.8966942 C0.976937456,50.0759669 1.41048848,55.7158678 3.81132521,60.6060826 C6.97183542,67.0455207 12.8909579,71.2454876 14.7728762,72.618314" id="Fill-18"></path>
                    <path d="M19.8895249,74.5422643 C20.7738923,75.3053717 21.2832188,75.3216692 21.1000147,74.5815701 C20.6875657,72.9326444 17.5069127,69.4047106 17.0455453,70.0863304 C16.9457902,70.2320494 17.0330759,70.5292395 17.0877494,70.7037188 C17.6325657,72.1599502 19.0531168,73.8213387 19.8895249,74.5422643" id="Fill-19"></path>
                    <path d="M42.8155337,83.4494545 C39.9178399,83.201157 35.6139827,83.5549091 30.9350848,80.2024132 C32.2386154,81.137124 39.0929419,82.847405 43.7248399,79.4651901 C32.5925541,84.6871074 22.4568603,70.1621818 20.653595,62 C20.7303297,62.868562 18.9500848,71.3566942 26.2475541,77.9447273 C21.6923909,76.1798017 16.9799215,75.1147107 17.0000643,75.1338843 C17.6101052,75.6276033 17.1429827,75.2144132 17.2523297,75.3361653 L18.0177582,75.9554711 C18.7026154,76.5249256 23.5695133,80.1305124 28.126595,81.4707438 C34.4150031,83.3248264 41.1158603,83.7629421 42.8155337,83.4494545" id="Fill-20"></path>
                    <path d="M45.9668571,82.6435041 C48.5767959,82.2686612 52.4116122,81.793157 57.2084898,78.9267107 C55.8685102,79.7243306 48.4262041,81.6023802 45,79.3063471 C53.8081837,82.5907769 67.9369592,71.3684959 71.1406327,65 C70.9027551,65.6672397 69.5416735,71.3761653 61.7962653,76.8981488 C66.1701429,75.2520992 69.9589184,70.8719008 69.9378163,71.2601653 C69.920551,71.5516033 70.0577143,71.1623802 69.9378163,71.2601653 C69.3853265,72.1095537 65.2867347,76.4590744 59.3186939,79.3130579 C53.225,82.227438 47.4046735,82.7758017 45.9668571,82.6435041" id="Fill-21"></path>
                    <path d="M71,69.6113388 C73.2329796,67.365157 74.3686531,66.2780165 78.3032245,57.7083967 C77.7162041,58.9891901 75.3335918,62.2784132 71.0057551,64.3855868 C79.1655306,60.4118678 82.8209796,43.6215868 81.7131224,37 C81.8387755,37.7439339 83.5557143,46.8417851 78.6197551,58.1628099 C76.6227347,62.7433719 72.5260612,68.7504463 71,69.6113388" id="Fill-22"></path>
                    <path d="M63.0429684,61.7190274 C61.9399072,63.5826968 61.3442542,66.0503332 63.1619072,65.6352257 C65.5598664,65.0839861 68.4479684,60.756515 66.8921725,59.1948291 C65.6461929,58.3866638 63.9091113,60.2618373 63.0429684,61.7190274" id="Fill-23"></path>
                    <path d="M59.441898,55.0929917 C59.3891429,55 59.441898,55.0929917 59.3853061,55 C59.4486122,55.0460165 64.8747143,59.8211901 59.0371224,68.221124 C65.8962449,62.8237686 69.3425918,63.6932893 70.7813673,64.6951074 C70.7813673,64.7027769 70.7784898,64.7094876 70.7756122,64.7133223 C67.0827551,63.8792727 61.2537959,68.3898512 57.3997959,71.3799669 C52.8292857,74.9184463 48.8832041,77.970876 44,79.184562 C44.1784082,79.1375868 44.4172449,79.0723967 44.5956531,79.0196694 C48.0535102,77.8941818 50.1397347,76.3315372 53.5074286,73.2484298 C50.3718571,75.2837025 46.9926531,76.8981157 44,79.184562 L44.177449,79.044595 C47.0358163,76.8195041 50.1387755,74.9577521 52.8887551,72.5773554 C55.844,70.020562 57.2098776,68.0859504 57.6635714,67.3707769 C61.1972041,61.7797686 60.732,57.4618843 59.441898,55.0929917" id="Fill-24"></path>
                    <path d="M47.0000173,57.1117686 C47.0057724,59.5563967 48.4934662,61.7546446 50.3111193,59.8507107 C52.1815275,57.9026777 52.5978132,53.4266116 49.8411193,53 C47.9898948,53.0047934 46.9952213,55.1253884 47.0000173,57.1117686" id="Fill-25"></path>
                    <path d="M39.1035918,54.0498512 C39,53.9980826 39.1035918,54.0498512 39,54 C39.0863265,54.0095868 47.5492041,55.1983471 47.9817959,64.9135868 C51.3907347,56.3631405 58.176,55.6134545 59.4996735,55.5463471 C51.8405918,57.7867769 48.9822245,67.6419835 47.9050612,71.3530248 C46.8432449,75.0113388 46.0787755,77.6496198 44.2227551,79.7443306 C44.3071633,79.638876 44.4241837,79.4950744 44.5143469,79.3915372 C46.0749388,77.1827438 46.2686939,75.2462149 46.6533265,71.3827438 C44.0923061,78.0589752 44.0923061,78.0589752 44.2227551,79.7443306 C44.2160408,79.695438 44.2054898,79.6302479 44.1997347,79.579438 C43.7767347,74.121686 46.7895306,69.0109752 45.6720816,63.485157 C44.7857959,59.1049587 42.5787143,55.7217851 39.1035918,54.0498512" id="Fill-26"></path>
                    <path d="M27.9643519,60.8676231 C29.3570866,62.9278215 31.9094743,64.1510942 32.3036988,61.7141355 C32.7065559,59.2532099 30.5033111,55.2804496 28.0353315,56.1125818 C26.523658,56.9207471 26.8142906,59.1640529 27.9643519,60.8676231" id="Fill-27"></path>
                    <path d="M20.7606327,61.9042975 C20.6608776,61.8995041 20.1007143,61.9627769 20,61.9570248 C20.0604286,61.9320992 26.6317959,59.681124 33.5264082,67.1866116 C30.4061837,58.6620496 37.1377347,54.7055868 38.5218367,54 C37.0475714,55.2031405 33.7662041,58.6984793 35.0697347,65.1254545 C36.2802245,71.0951405 41.3514286,74.5492562 43.7445918,79.7443306 C43.6870408,79.638876 43.6141429,79.4969917 43.5623469,79.3944132 C43.0232857,78.5124298 43.0232857,78.5124298 37.4082245,72.8073388 C39.2863061,75.9335868 40.6445102,78.1941488 43.7445918,79.7443306 L43.5297347,79.6475041 C34.8750204,75.2337521 31.9408776,62.7613554 20.7606327,61.9042975" id="Fill-28"></path>
                    <path d="M15,10.2952727 C15.0517959,10.2521322 15.0968776,10.2089917 15.1477143,10.1648926 C15.0968776,10.2089917 15.047,10.2511736 15,10.2952727 M15.1927959,10.1246281 L15.1035918,10.202281 C15.1832041,10.1351736 15.2580204,10.0671074 15.3376327,10 C15.2944694,10.0383471 15.2369184,10.0872397 15.1927959,10.1246281" id="Fill-29"></path>
                    <path d="M7.25241892,19.8284406 C6.48603116,20.677829 6.03041892,21.0133662 6.00260259,20.7516472 C5.88270463,19.6347877 9.94292912,14.413829 10.433072,15.0542257 C10.5126842,15.1587216 10.4052557,15.4242753 10.339072,15.5862918 C9.65421484,17.0310191 7.73009239,19.3002092 7.25241892,19.8284406" id="Fill-30"></path>
                    <path d="M9.46671429,23.6419835 C6.99681633,22.6727603 3.52265306,23.5815868 1,33.432 C2.10306122,29.461157 2.30161224,28.7440661 3.88714286,25.0646612 C5.59065306,21.6901157 5.99734694,20.8877025 8.40297959,17.397157 L8.62071429,17.105719 C10.6215714,14.4473058 12.8085102,12.1244298 15.309102,10 C8.99287755,15.3791405 5.65683673,21.6766942 4.40414286,24.0484628 C5.27412245,22.6555041 6.59108163,20.5416198 9.50891837,23.6621157 C9.49836735,23.658281 9.47726531,23.6496529 9.46671429,23.6419835" id="Fill-31"></path>
                    <path d="M104.23,25.357157 C104.23,28.4306777 105.262082,30.9577521 107.327204,32.9383802 C109.37698,34.9199669 111.75,35.9112397 114.434755,35.9112397 C117.349714,35.9112397 119.81098,34.9017521 121.814714,32.8856529 C123.816531,30.8446281 124.820796,28.3587769 124.820796,25.4290579 C124.820796,22.4629091 123.829959,19.9789752 121.851163,17.9734215 C119.882918,15.9563636 117.445633,14.9478347 114.543143,14.9478347 C111.650245,14.9478347 109.212,15.9563636 107.217857,17.9734215 C105.224673,19.9674711 104.23,22.427438 104.23,25.357157 Z M100,25.3120992 C100,21.3939835 101.43398,18.0290248 104.30098,15.2181818 C107.157429,12.4054215 110.590347,11 114.597816,11 C118.556367,11 121.952837,12.4178843 124.785306,15.2536529 C127.628327,18.0903802 129.050796,21.4975207 129.050796,25.4750744 C129.050796,29.4756364 127.621612,32.870314 124.768041,35.6591074 C121.898163,38.4584463 118.436469,39.8581157 114.382,39.8581157 C110.794653,39.8581157 107.571796,38.6137521 104.715347,36.1279008 C101.572102,33.3764959 100,29.7699504 100,25.3120992 Z" id="Fill-32"></path>
                    <path d="M137.191633,24.6344132 L138.75798,24.6344132 C142.610061,24.6344132 144.536102,23.1503802 144.536102,20.182314 C144.536102,17.3101157 142.550592,15.8740165 138.577653,15.8740165 L137.191633,15.8740165 L137.191633,24.6344132 Z M137.191633,28.5276033 L137.191633,39.8284959 L133,39.8284959 L133,12 L137.747959,12 C140.076857,12 141.836,12.1620165 143.023469,12.4860496 C144.223408,12.8100826 145.277551,13.4226777 146.190694,14.3238347 C147.785816,15.8855207 148.584816,17.856562 148.584816,20.236 C148.584816,22.7841653 147.732102,24.8021818 146.027633,26.2929256 C144.324122,27.7827107 142.026878,28.5276033 139.136857,28.5276033 L137.191633,28.5276033 Z" id="Fill-33"></path>
                    <polyline id="Fill-34" points="168.335429 15.946876 157.19451 15.946876 157.19451 22.6336529 168.009306 22.6336529 168.009306 26.5805289 157.19451 26.5805289 157.19451 35.8816198 168.335429 35.8816198 168.335429 39.8284959 153 39.8284959 153 12 168.335429 12 168.335429 15.946876"></polyline>
                    <polyline id="Fill-35" points="173 39.7218843 173 10 193.266592 31.2327934 193.266592 11.8933884 197.461102 11.8933884 197.461102 41.4168264 177.19451 20.237719 177.19451 39.7218843 173 39.7218843"></polyline>
                    <polyline id="Fill-36" points="229.332551 15.946876 218.193551 15.946876 218.193551 22.6336529 229.009306 22.6336529 229.009306 26.5805289 218.193551 26.5805289 218.193551 35.8816198 229.332551 35.8816198 229.332551 39.8284959 214 39.8284959 214 12 229.332551 12 229.332551 15.946876"></polyline>
                    <path d="M238.191633,35.8816198 L240.083143,35.8816198 C241.965061,35.8816198 243.531408,35.6831736 244.780265,35.286281 C246.028163,34.8654215 247.156163,34.1991405 248.164265,33.2855207 C250.227469,31.398843 251.26051,28.9417521 251.26051,25.9142479 C251.26051,22.8618182 250.239939,20.3865124 248.200714,18.4873719 C246.363878,16.7933884 243.65802,15.946876 240.083143,15.946876 L238.191633,15.946876 L238.191633,35.8816198 Z M234,39.8284959 L234,12 L239.831837,12 C242.62498,12 244.83398,12.2751405 246.454041,12.8282975 C248.193041,13.3689917 249.770898,14.287405 251.186653,15.5873719 C254.056531,18.2055207 255.489551,21.6481322 255.489551,25.9142479 C255.489551,30.1918678 253.995143,33.6517355 251.008245,36.2957686 C249.507122,37.6177851 247.937898,38.537157 246.292898,39.0529256 C244.755327,39.5706116 242.57702,39.8284959 239.758939,39.8284959 L234,39.8284959 Z" id="Fill-37"></path>
                    <path d="M264.193551,12 L264.193551,28.7490579 C264.193551,31.1380826 264.583939,32.8857521 265.363755,33.9911074 C266.527245,35.5873058 268.164571,36.386843 270.276694,36.386843 C272.401286,36.386843 274.045327,35.5873058 275.209776,33.9911074 C275.987673,32.9212231 276.37902,31.1745124 276.37902,28.7490579 L276.37902,12 L280.572571,12 L280.572571,29.9148099 C280.572571,32.847405 279.659429,35.262314 277.83602,37.1614545 C275.783367,39.2753388 273.263592,40.333719 270.276694,40.333719 C267.289796,40.333719 264.774816,39.2753388 262.736551,37.1614545 C260.913143,35.262314 260,32.847405 260,29.9148099 L260,12 L264.193551,12" id="Fill-38"></path>
                    <path d="M306.92502,13.028562 L306.92502,17.9945124 C304.500204,15.9630744 301.99098,14.9487934 299.399265,14.9487934 C296.542816,14.9487934 294.135265,15.9755372 292.181408,18.0299835 C290.215082,20.0729256 289.23,22.5721983 289.23,25.5278017 C289.23,28.4488926 290.215082,30.9126942 292.181408,32.9192066 C294.149653,34.9247603 296.561041,35.9294545 299.415571,35.9294545 C300.891755,35.9294545 302.147327,35.6878678 303.178449,35.2075702 C303.754918,34.9679008 304.351531,34.6429091 304.968286,34.2345124 C305.588878,33.8261157 306.238245,33.3333554 306.92502,32.7562314 L306.92502,37.8295537 C304.523224,39.1937521 302.003449,39.8763306 299.363776,39.8763306 C295.391796,39.8763306 291.999163,38.4872066 289.19451,35.7118347 C286.397531,32.9124959 285,29.5360331 285,25.5824463 C285,22.0382149 286.169245,18.8774545 288.512531,16.1020826 C291.388163,12.7006942 295.114592,11 299.688939,11 C302.182816,11 304.595163,11.6768264 306.92502,13.028562" id="Fill-39"></path>
                    <path d="M326.796694,28.8715702 L322.677959,19.4094215 L318.358755,28.8715702 L326.796694,28.8715702 Z M328.508837,32.8184463 L316.610163,32.8184463 L313.517755,39.5780826 L309,39.5780826 L322.748939,10 L336.015408,39.5780826 L331.425714,39.5780826 L328.508837,32.8184463 Z" id="Fill-40"></path>
                    <polyline id="Fill-41" points="344.584592 15.946876 344.584592 39.8284959 340.388163 39.8284959 340.388163 15.946876 334 15.946876 334 12 350.954531 12 350.954531 15.946876 344.584592 15.946876"></polyline>
                    <polygon id="Fill-42" points="354 39.8284959 358.192592 39.8284959 358.192592 12 354 12"></polygon>
                    <path d="M367.228082,25.357157 C367.228082,28.4306777 368.263041,30.9577521 370.324327,32.9383802 C372.377939,34.9199669 374.747122,35.9112397 377.435714,35.9112397 C380.349714,35.9112397 382.81002,34.9017521 384.812796,32.8856529 C386.818449,30.8446281 387.820796,28.3587769 387.820796,25.4290579 C387.820796,22.4629091 386.829,19.9789752 384.848286,17.9734215 C382.881,15.9563636 380.445633,14.9478347 377.543143,14.9478347 C374.651204,14.9478347 372.210082,15.9563636 370.216898,17.9734215 C368.225633,19.9674711 367.228082,22.427438 367.228082,25.357157 Z M363,25.3120992 C363,21.3939835 364.434939,18.0290248 367.302898,15.2181818 C370.15551,12.4054215 373.590347,11 377.596857,11 C381.556367,11 384.950918,12.4178843 387.783388,15.2536529 C390.627367,18.0903802 392.048878,21.4975207 392.048878,25.4750744 C392.048878,29.4756364 390.620653,32.870314 387.765163,35.6591074 C384.899122,38.4584463 381.43551,39.8581157 377.381041,39.8581157 C373.793694,39.8581157 370.569878,38.6137521 367.715347,36.1279008 C364.573061,33.3764959 363,29.7699504 363,25.3120992 Z" id="Fill-43"></path>
                    <polyline id="Fill-44" points="396 39.7218843 396 10 416.265633 31.2327934 416.265633 11.8933884 420.458224 11.8933884 420.458224 41.4168264 400.193551 20.237719 400.193551 39.7218843 396 39.7218843"></polyline>
                    <path d="M116.862449,49.5597686 L116.862449,53.3791405 C114.994918,51.8164959 113.068878,51.0370909 111.075694,51.0370909 C108.878204,51.0370909 107.027939,51.8260826 105.523939,53.4069421 C104.010347,54.9772562 103.255469,56.9003636 103.255469,59.1733884 C103.255469,61.4195702 104.010347,63.3129587 105.523939,64.8583471 C107.036571,66.4018182 108.891633,67.172595 111.089122,67.172595 C112.223837,67.172595 113.187816,66.9875702 113.98298,66.6175207 C114.423245,66.4334545 114.883653,66.1832397 115.359408,65.8697521 C115.833245,65.5562645 116.333939,65.1775868 116.862449,64.7327603 L116.862449,68.6355372 C115.015061,69.6843306 113.07751,70.2087273 111.046918,70.2087273 C107.994796,70.2087273 105.383898,69.1398017 103.228612,67.0077025 C101.075245,64.852595 100,62.2574545 100,59.2155702 C100,56.4890909 100.899714,54.0598017 102.699143,51.9229091 C104.914857,49.308595 107.779939,48 111.297265,48 C113.216592,48 115.070694,48.520562 116.862449,49.5597686" id="Fill-45"></path>
                    <path d="M137.255469,59.0420496 C137.255469,61.4061488 138.048714,63.3503471 139.633286,64.873686 C141.21498,66.3979835 143.03551,67.1591736 145.104469,67.1591736 C147.346082,67.1591736 149.238551,66.3826446 150.779,64.8334215 C152.320408,63.2631074 153.090633,61.3515041 153.090633,59.0986116 C153.090633,56.8169587 152.33,54.906314 150.807776,53.3638017 C149.293224,51.8126612 147.41802,51.0380496 145.187918,51.0380496 C142.960694,51.0380496 141.083571,51.8126612 139.552714,53.3638017 C138.01898,54.8967273 137.255469,56.7910744 137.255469,59.0420496 Z M134,59.0084959 C134,55.9953719 135.105939,53.4069421 137.309184,51.2460826 C139.504755,49.0823471 142.144429,48 145.228204,48 C148.273612,48 150.883551,49.0919339 153.059939,51.2729256 C155.247837,53.4539174 156.344184,56.0739835 156.344184,59.133124 C156.344184,62.208562 155.244959,64.8219174 153.049388,66.9655207 C150.844224,69.1187107 148.183449,70.1953058 145.062265,70.1953058 C142.303653,70.1953058 139.825122,69.2385455 137.63051,67.3240661 C135.209531,65.2101818 134,62.4367273 134,59.0084959 Z" id="Fill-46"></path>
                    <polyline id="Fill-47" points="175 68.8587107 175 46 190.587694 62.329157 190.587694 47.4552727 193.812469 47.4552727 193.812469 70.1625124 178.223816 53.8726612 178.223816 68.8587107 175 68.8587107"></polyline>
                    <path d="M225.154245,51.5912066 L222.537592,53.1433058 C222.048408,52.2939174 221.581286,51.738843 221.138143,51.4809587 C220.678694,51.1837686 220.081122,51.0370909 219.353102,51.0370909 C218.457224,51.0370909 217.715776,51.2911405 217.123959,51.7992397 C216.53502,52.2987107 216.237673,52.9266446 216.237673,53.6849587 C216.237673,54.7318347 217.012694,55.5716364 218.564653,56.2110744 L220.695959,57.0834711 C222.430163,57.7890579 223.699163,58.645157 224.502959,59.6575207 C225.306755,60.670843 225.708653,61.9123306 225.708653,63.3829421 C225.708653,65.3520661 225.053531,66.9818182 223.741367,68.2664463 C222.420571,69.5606612 220.784204,70.2087273 218.829388,70.2087273 C216.971449,70.2087273 215.441551,69.6565289 214.23298,68.5511736 C213.041673,67.4496529 212.298306,65.896595 212,63.9035041 L215.269857,63.1806612 C215.417571,64.4365289 215.673673,65.3041322 216.044878,65.7863471 C216.709592,66.7095537 217.678367,67.172595 218.951204,67.172595 C219.956429,67.172595 220.793796,66.8360992 221.454673,66.1621488 C222.122265,65.4881983 222.453184,64.6311405 222.453184,63.5986446 C222.453184,63.1825785 222.396592,62.8029421 222.278612,62.4568595 C222.166388,62.1098182 221.985102,61.7905785 221.739551,61.5000992 C221.495918,61.2086612 221.181306,60.935438 220.793796,60.6833058 C220.403408,60.4292562 219.943,60.1857521 219.408735,59.9547107 L217.34649,59.0966942 C214.42002,57.86 212.958224,56.0500165 212.958224,53.6648264 C212.958224,52.06 213.570184,50.7149752 214.798898,49.6364628 C216.027612,48.5445289 217.553673,48 219.381878,48 C221.845061,48 223.770143,49.1983471 225.154245,51.5912066" id="Fill-48"></path>
                    <path d="M246.251633,59.0420496 C246.251633,61.4061488 247.048714,63.3503471 248.634245,64.873686 C250.213061,66.3979835 252.034551,67.1591736 254.101592,67.1591736 C256.344163,67.1591736 258.237592,66.3826446 259.779,64.8334215 C261.316571,63.2631074 262.090633,61.3515041 262.090633,59.0986116 C262.090633,56.8169587 261.328082,54.906314 259.805857,53.3638017 C258.291306,51.8126612 256.41802,51.0380496 254.186,51.0380496 C251.959735,51.0380496 250.083571,51.8126612 248.549837,53.3638017 C247.017061,54.8967273 246.251633,56.7910744 246.251633,59.0420496 Z M243,59.0084959 C243,55.9953719 244.103061,53.4069421 246.307265,51.2460826 C248.502837,49.0823471 251.144429,48 254.228204,48 C257.274571,48 259.882592,49.0919339 262.061857,51.2729256 C264.246878,53.4539174 265.342265,56.0739835 265.342265,59.133124 C265.342265,62.208562 264.243041,64.8219174 262.048429,66.9655207 C259.843265,69.1187107 257.179612,70.1953058 254.060347,70.1953058 C251.299816,70.1953058 248.823204,69.2385455 246.625714,67.3240661 C244.209531,65.2101818 243,62.4367273 243,59.0084959 Z" id="Fill-49"></path>
                    <path d="M286.223816,57.8283636 L287.249184,57.8283636 C290.304184,57.8283636 291.830245,56.6587769 291.830245,54.320562 C291.830245,52.1299835 290.345429,51.0351736 287.373878,51.0351736 L286.223816,51.0351736 L286.223816,57.8283636 Z M290.239918,60.2825785 L296.856367,69.403438 L292.911245,69.403438 L286.807,60.641124 L286.223816,60.641124 L286.223816,69.403438 L283,69.403438 L283,48 L286.778224,48 C289.601102,48 291.641286,48.5301488 292.896857,49.5933223 C294.281918,50.7772893 294.974449,52.3380165 294.974449,54.2793388 C294.974449,55.7940496 294.539939,57.0988099 293.672837,58.1888264 C292.804776,59.2807603 291.660469,59.9767603 290.239918,60.2825785 Z" id="Fill-50"></path>
                    <polyline id="Fill-51" points="320.139633 51.0351736 320.139633 69.403438 316.914857 69.403438 316.914857 51.0351736 312 51.0351736 312 48 325.040102 48 325.040102 51.0351736 320.139633 51.0351736"></polyline>
                    <polygon id="Fill-52" points="342 69.403438 345.224776 69.403438 345.224776 48 342 48"></polygon>
                    <path d="M368.223816,48 L368.223816,60.8827107 C368.223816,62.7195372 368.523082,64.0655207 369.122571,64.9139504 C370.018449,66.1420165 371.277857,66.7555702 372.901755,66.7555702 C374.535245,66.7555702 375.799449,66.1420165 376.693408,64.9139504 C377.294816,64.091405 377.594082,62.7492562 377.594082,60.8827107 L377.594082,48 L380.818857,48 L380.818857,61.7800331 C380.818857,64.0338843 380.117694,65.8918017 378.716327,67.3528264 C377.138469,68.9787438 375.200918,69.7917025 372.901755,69.7917025 C370.602592,69.7917025 368.669837,68.9787438 367.102531,67.3528264 C365.701163,65.8918017 365,64.0338843 365,61.7800331 L365,48 L368.223816,48" id="Fill-53"></path>
                    <polyline id="Fill-54" points="399 69.0130579 403.50049 46 410.835367 62.6368926 418.43498 46 422.477939 69.0130579 419.166837 69.0130579 417.104592 56.0929587 410.779735 69.9985785 404.633286 56.0785785 402.335082 69.0130579 399 69.0130579"></polyline>
                </g>
                <text id="The-Global-Network-f" font-family="Futura-Medium, Futura" font-size="16" font-weight="400" letter-spacing="3.54999995">
                    <tspan x="0" y="112">The Global Network for Open Educatio</tspan>
                    <tspan x="415.659373" y="112">n</tspan>
                </text>
            </g>
        </g>
    </g>
</svg>
